<svg width="180" height="50" viewBox="0 0 180 50" fill="none" xmlns="http://www.w3.org/2000/svg">
<path fill-rule="evenodd" clip-rule="evenodd" d="M0 0.232422H47.4429V30.0489H45.5722V2.10307H1.87064V32.5647H5.86074V8.3802L13.2874 5.0144L18.5206 6.34491V8.58063L21.8258 11.8855V20.0533H25.0968L29.9223 22.8903V24.73H28.0516V23.9604L25.7175 22.5882V32.6302H28.0726V26.5416H31.7841V20.6848L37.6205 17.1002L42.8561 21.3061V32.3961L47.4772 32.3961V47.4268H0V37.1868H1.87064V45.5562H45.6065V34.2667L36.9633 34.2667V19.6992L33.6548 21.7312V28.4123H29.9433V32.6302H35.2024V40.4815H28.0726V34.5008H23.8468V21.9239H21.8258V34.6605H19.9552V21.9239H18.5206V28.0099H12.4394V20.0533H16.65V9.35553L16.641 9.34654L16.65 9.33755V7.79947L14.3418 7.21263L14.3418 18.242H12.4711L12.4711 7.43812L7.73139 9.5862V32.5647H12.6304V40.4815H5.86074V34.4353H0V0.232422ZM18.5206 11.226V20.0533H19.9552V12.6604L18.5206 11.226ZM38.8339 20.4744V32.3961L40.9855 32.3961V22.2028L38.8339 20.4744ZM7.73139 34.4353V38.6109H10.7598V34.4353H7.73139ZM16.65 21.9239H14.3101V26.1392H16.65V21.9239ZM29.9433 34.5008V38.6109H33.3317V34.5008H29.9433Z" fill="#377587"/>
<path d="M137.817 46.001V28.9121H148.595V31.3569H140.611V36.1718H147.098V38.5667H140.611V43.5562H148.595V46.001H137.817Z" fill="#377587"/>
<path d="M122.396 46.001V28.9121H128.882C132.649 28.9121 134.67 30.5836 134.67 34.3506C134.67 36.7705 133.697 38.442 131.901 39.2902L134.695 46.001H131.627L129.182 39.9139H125.19V46.001H122.396ZM125.19 37.5189H128.932C131.003 37.5189 131.801 36.1468 131.801 34.3756C131.801 32.4546 130.853 31.332 128.882 31.332H125.19V37.5189Z" fill="#377587"/>
<path d="M105.99 46.001L110.181 28.9121H115.744L119.96 46.001H117.141L116.243 42.3587H109.707L108.784 46.001H105.99ZM110.256 39.8889H115.694L113.599 31.2572H112.351L110.256 39.8889Z" fill="#377587"/>
<path d="M97.4949 46.2754C93.4285 46.2754 91.2332 44.604 91.2332 40.4877V28.9121H94.0273V40.5376C94.0273 42.8327 95.2497 43.8306 97.4949 43.8306C99.7901 43.8306 101.013 42.8327 101.013 40.5376V28.9121H103.807V40.4877C103.807 44.604 101.611 46.2754 97.4949 46.2754Z" fill="#377587"/>
<path d="M84.9651 49.7691L82.7198 46.1267C82.3955 46.2265 81.7718 46.2764 81.223 46.2764C75.8593 46.2764 74.2627 43.3326 74.2627 37.5449C74.2627 31.8319 75.8843 28.6387 81.223 28.6387C86.5617 28.6387 88.1584 31.807 88.1584 37.5449C88.1584 41.4117 87.4349 43.8565 85.4391 45.2037L87.5347 48.5716L84.9651 49.7691ZM81.223 43.8316C84.516 43.8316 85.2645 41.9106 85.2645 37.5449C85.2645 33.3288 84.4911 31.0835 81.223 31.0835C77.93 31.0835 77.1566 33.3038 77.1566 37.5449C77.1566 41.8358 77.905 43.8316 81.223 43.8316Z" fill="#377587"/>
<path d="M66.3053 46.276C64.6837 46.276 62.1641 45.8768 60.7171 45.6024L60.9915 43.3821C62.4634 43.5567 64.8334 43.8062 66.1307 43.8062C68.2263 43.8062 69.2241 42.8582 69.2241 41.0869C69.2241 39.6649 68.4508 39.166 65.8313 38.5174C62.1142 37.5694 60.5425 36.4467 60.5425 33.503C60.5425 30.0602 62.8127 28.6133 66.2305 28.6133C67.8022 28.6133 70.2719 28.9625 71.644 29.212L71.4195 31.4822C69.9227 31.3076 67.5277 31.0581 66.4799 31.0581C64.3844 31.0581 63.3366 31.8315 63.3366 33.3034C63.3366 34.8751 64.2347 35.2243 67.1535 36.0476C70.721 37.0455 72.0182 37.9935 72.0182 40.9123C72.0182 44.6544 69.6732 46.276 66.3053 46.276Z" fill="#377587"/>
<path d="M169.172 20.0147V2.92578H179.95V5.37062H171.966V10.1855H178.453V12.5804H171.966V17.5699H179.95V20.0147H169.172Z" fill="#377587"/>
<path d="M153.751 20.0147V2.92578H160.237C164.004 2.92578 166.025 4.59725 166.025 8.3643C166.025 10.7842 165.052 12.4557 163.256 13.3039L166.05 20.0147H162.981L160.537 13.9275H156.545V20.0147H153.751ZM156.545 11.5326H160.287C162.358 11.5326 163.156 10.1605 163.156 8.38925C163.156 6.4683 162.208 5.34567 160.237 5.34567H156.545V11.5326Z" fill="#377587"/>
<path d="M143.591 20.2901C138.228 20.2901 136.631 17.3214 136.631 11.5585C136.631 5.8456 138.253 2.65234 143.591 2.65234C148.93 2.65234 150.527 5.82065 150.527 11.5585C150.527 17.3713 148.93 20.2901 143.591 20.2901ZM143.591 17.8453C146.884 17.8453 147.633 15.8744 147.633 11.5585C147.633 7.34244 146.859 5.09718 143.591 5.09718C140.298 5.09718 139.525 7.31749 139.525 11.5585C139.525 15.8245 140.273 17.8453 143.591 17.8453Z" fill="#377587"/>
<path d="M116.184 20.0147V2.92578H121.023L124.815 16.2477L128.607 2.92578H133.472V20.0147H130.678V6.01925H130.304L126.262 19.3162H123.369L119.352 6.01925H118.978V20.0147H116.184Z" fill="#377587"/>
<path d="M99.7775 20.0147L103.969 2.92578H109.532L113.748 20.0147H110.929L110.031 16.3724H103.495L102.572 20.0147H99.7775ZM104.043 13.9026H109.482L107.386 5.27083H106.139L104.043 13.9026Z" fill="#377587"/>
<path d="M93.4179 20.2901C88.2039 20.2901 87.0065 17.3214 87.0065 11.4837C87.0065 5.29676 88.3037 2.65234 93.4179 2.65234C95.1892 2.65234 97.2349 3.02655 98.3076 3.27603L98.2078 5.54623C97.0852 5.34666 95.0146 5.12213 93.7921 5.12213C90.6488 5.12213 89.9004 6.64392 89.9004 11.4837C89.9004 16.1738 90.524 17.7954 93.867 17.7954C95.1393 17.7954 97.1351 17.5958 98.2078 17.4212L98.2827 19.7413C97.1101 19.9907 95.0146 20.2901 93.4179 20.2901Z" fill="#377587"/>
<path d="M78.1381 20.0147V12.9796L72.7744 2.92578H75.8928L79.5102 10.2353L83.1276 2.92578H86.246L80.9322 12.9796V20.0147H78.1381Z" fill="#377587"/>
<path d="M66.3053 20.2897C64.6837 20.2897 62.1641 19.8905 60.7171 19.6161L60.9915 17.3958C62.4634 17.5704 64.8334 17.8199 66.1307 17.8199C68.2263 17.8199 69.2241 16.8719 69.2241 15.1006C69.2241 13.6786 68.4508 13.1797 65.8313 12.531C62.1142 11.583 60.5425 10.4604 60.5425 7.51663C60.5425 4.0739 62.8127 2.62695 66.2305 2.62695C67.8022 2.62695 70.2719 2.97622 71.644 3.22569L71.4195 5.4959C69.9227 5.32126 67.5277 5.07179 66.4799 5.07179C64.3844 5.07179 63.3366 5.84516 63.3366 7.31705C63.3366 8.88873 64.2347 9.23799 67.1535 10.0613C70.721 11.0591 72.0182 12.0071 72.0182 14.926C72.0182 18.6681 69.6732 20.2897 66.3053 20.2897Z" fill="#377587"/>
<path d="M175.836 34.899V29.0059H177.996C179.338 29.0059 180 29.6597 180 30.9932C180 32.3181 179.338 33.0666 177.996 33.0666H176.8V34.899H175.836ZM176.8 32.2321H177.987C178.692 32.2321 179.019 31.8019 179.019 30.9932C179.019 30.1845 178.692 29.8404 177.987 29.8404H176.8V32.2321Z" fill="#377587"/>
<path d="M172.348 34.9937C170.946 34.9937 170.189 34.4173 170.189 32.9977V29.0059H171.153V33.0149C171.153 33.8064 171.574 34.1506 172.348 34.1506C173.14 34.1506 173.561 33.8064 173.561 33.0149V29.0059H174.525V32.9977C174.525 34.4173 173.768 34.9937 172.348 34.9937Z" fill="#377587"/>
<path d="M166.737 34.9946C164.887 34.9946 164.337 33.9708 164.337 31.9834C164.337 30.0133 164.896 28.9121 166.737 28.9121C168.578 28.9121 169.129 30.0047 169.129 31.9834C169.129 33.988 168.578 34.9946 166.737 34.9946ZM166.737 34.1515C167.873 34.1515 168.131 33.4718 168.131 31.9834C168.131 30.5295 167.864 29.7552 166.737 29.7552C165.601 29.7552 165.335 30.5209 165.335 31.9834C165.335 33.4546 165.593 34.1515 166.737 34.1515Z" fill="#377587"/>
<path d="M159.277 34.899V29.0059H161.513C162.813 29.0059 163.509 29.5823 163.509 30.8814C163.509 31.7159 163.174 32.2923 162.554 32.5848L163.518 34.899H162.46L161.617 32.7999H160.24V34.899H159.277ZM160.24 31.974H161.531C162.245 31.974 162.52 31.5008 162.52 30.89C162.52 30.2275 162.193 29.8404 161.513 29.8404H160.24V31.974Z" fill="#377587"/>
<path d="M156.108 34.9946C154.233 34.9946 153.751 33.9106 153.751 31.9576C153.751 29.8929 154.319 28.9121 156.074 28.9121C156.736 28.9121 157.605 29.0412 158.078 29.1444L158.044 29.9101C157.596 29.8499 156.788 29.7638 156.22 29.7638C155.05 29.7638 154.749 30.2972 154.749 31.9576C154.749 33.5578 154.998 34.1515 156.194 34.1515C156.504 34.1515 156.917 34.1084 157.123 34.0826V32.6545H156.401V31.8028H158.078V34.7967C157.605 34.8741 156.667 34.9946 156.108 34.9946Z" fill="#377587"/>
</svg>
