<svg width="48" height="50" viewBox="0 0 48 50" fill="none" xmlns="http://www.w3.org/2000/svg">
<path fill-rule="evenodd" clip-rule="evenodd" d="M0 0.232422H47.4429V30.0489H45.5722V2.10307H1.87064V32.5647H5.86074V8.3802L13.2874 5.0144L18.5206 6.34491V8.58063L21.8258 11.8855V20.0533H25.0968L29.9223 22.8903V24.73H28.0516V23.9604L25.7175 22.5882V32.6302H28.0726V26.5416H31.7841V20.6848L37.6205 17.1002L42.8561 21.3061V32.3961L47.4772 32.3961V47.4268H0V37.1868H1.87064V45.5562H45.6065V34.2667L36.9633 34.2667V19.6992L33.6548 21.7312V28.4123H29.9433V32.6302H35.2024V40.4815H28.0726V34.5008H23.8468V21.9239H21.8258V34.6605H19.9552V21.9239H18.5206V28.0099H12.4394V20.0533H16.65V9.35553L16.641 9.34654L16.65 9.33755V7.79947L14.3418 7.21263L14.3418 18.242H12.4711L12.4711 7.43812L7.73139 9.5862V32.5647H12.6304V40.4815H5.86074V34.4353H0V0.232422ZM18.5206 11.226V20.0533H19.9552V12.6604L18.5206 11.226ZM38.8339 20.4744V32.3961L40.9855 32.3961V22.2028L38.8339 20.4744ZM7.73139 34.4353V38.6109H10.7598V34.4353H7.73139ZM16.65 21.9239H14.3101V26.1392H16.65V21.9239ZM29.9433 34.5008V38.6109H33.3317V34.5008H29.9433Z" fill="#377587"/>
</svg>
